<?xml version="1.0" standalone="no"?>
<!DOCTYPE svg PUBLIC "-//W3C//DTD SVG 20010904//EN"
 "http://www.w3.org/TR/2001/REC-SVG-20010904/DTD/svg10.dtd">
<svg version="1.0" xmlns="http://www.w3.org/2000/svg"
 width="500.000000pt" height="500.000000pt" viewBox="0 0 500.000000 500.000000"
 preserveAspectRatio="xMidYMid meet">

<g transform="translate(0.000000,500.000000) scale(0.100000,-0.100000)"
fill="#000000" stroke="none">
<path d="M3483 4569 c-18 -5 -33 -14 -33 -19 0 -6 -6 -10 -14 -10 -8 0 -28
-16 -45 -35 -106 -121 -21 -305 140 -305 63 0 103 21 145 75 32 42 43 122 25
178 -28 85 -134 141 -218 116z m-3 -51 c28 -30 26 -55 -5 -60 -14 -3 -28 -1
-31 4 -3 4 -9 6 -14 3 -8 -5 -8 4 2 45 2 12 17 29 25 30 1 0 11 -10 23 -22z"/>
<path d="M3081 4523 c-22 -48 -41 -148 -41 -218 0 -68 24 -186 51 -252 13 -31
12 -34 -17 -65 -54 -59 -84 -106 -111 -175 -24 -60 -27 -82 -28 -188 0 -104 4
-133 28 -215 115 -383 110 -355 66 -364 -103 -20 -161 -140 -139 -285 10 -64
55 -171 72 -171 11 0 11 1 -19 66 -24 50 -28 72 -28 144 0 75 3 91 28 132 50
85 122 99 193 36 51 -45 66 -81 66 -157 0 -106 -30 -171 -121 -261 -108 -108
-209 -151 -415 -181 -39 -6 -251 -14 -471 -19 -537 -11 -761 -42 -974 -133
-177 -75 -267 -150 -326 -270 -112 -229 -41 -475 149 -518 48 -10 61 -10 99 5
45 17 87 49 87 67 0 5 -19 -3 -42 -18 -59 -40 -137 -39 -197 0 -83 55 -118
186 -87 321 59 251 273 372 762 432 80 9 281 19 529 24 466 10 548 21 725 91
149 59 269 175 316 305 63 172 -2 356 -138 389 l-28 7 0 197 c0 108 5 228 10
266 22 153 96 278 209 352 65 43 132 65 249 82 89 14 165 48 223 101 43 39 43
40 14 33 -16 -5 -84 -8 -150 -8 -114 0 -124 2 -200 35 -148 63 -290 238 -310
379 -8 60 -18 70 -34 34z"/>
<path d="M2888 4423 c-18 -15 -35 -30 -38 -33 -3 -3 -119 -102 -257 -219 -139
-117 -254 -221 -255 -230 -4 -49 28 -101 54 -85 7 4 8 3 4 -4 -4 -7 -2 -12 4
-12 6 0 8 -5 4 -12 -4 -6 -3 -8 3 -5 12 7 46 -29 95 -100 19 -28 40 -56 46
-64 47 -54 80 -104 75 -113 -3 -5 -1 -6 5 -2 11 7 17 -6 13 -27 -1 -5 3 -6 8
-3 8 5 34 -28 69 -91 7 -13 17 -23 22 -23 5 0 11 -8 14 -17 3 -10 17 -30 31
-45 14 -15 25 -31 24 -35 0 -4 5 -9 13 -11 9 -2 8 0 -2 7 -8 6 -12 11 -7 11 4
0 -9 25 -29 55 -20 30 -41 52 -47 48 -6 -3 -7 -1 -3 5 4 6 -2 24 -12 39 -22
31 -274 420 -286 441 -19 31 16 75 248 307 134 135 242 245 240 245 -1 0 -17
-12 -36 -27z"/>
<path d="M3645 3507 c-156 -51 -299 -150 -401 -277 -89 -109 -93 -130 -8 -44
154 156 312 233 524 256 58 6 107 13 109 14 7 6 -22 35 -48 48 -51 26 -102 27
-176 3z"/>
<path d="M3551 3320 c-29 -11 -65 -27 -80 -37 -14 -10 -29 -18 -33 -18 -9 0
-23 -15 -24 -26 -1 -5 -2 -12 -3 -17 0 -4 -18 -16 -38 -27 -21 -11 -54 -29
-74 -42 -20 -12 -40 -20 -43 -17 -3 2 -4 1 -1 -2 2 -4 -16 -23 -40 -42 -25
-19 -43 -37 -40 -40 2 -3 10 0 17 5 33 26 159 86 228 107 57 18 222 46 272 46
2 0 5 11 6 25 1 17 -3 25 -14 25 -8 0 -12 5 -9 10 5 8 11 8 20 0 10 -8 15 -8
20 0 4 7 18 9 31 6 47 -12 17 28 -39 52 -40 17 -94 14 -156 -8z"/>
<path d="M3281 2303 c-55 -54 -97 -85 -170 -122 -289 -149 -455 -184 -938
-201 -450 -15 -566 -26 -728 -66 -148 -37 -311 -113 -366 -170 l-34 -36 80 40
c126 62 287 104 490 127 28 3 226 10 440 15 421 10 524 21 694 75 121 39 316
128 394 181 103 71 240 215 215 227 -1 1 -36 -30 -77 -70z"/>
</g>
</svg>
